@startuml
class Admin.ElectionResults {
~ Connection con
~ PreparedStatement pst
~ ResultSet rs
~ int q
- JFrame frame
- javax.swing.JButton jButton1
- javax.swing.JButton jButton13
- javax.swing.JButton jButton17
- javax.swing.JButton jButton2
- javax.swing.JButton jButton3
- javax.swing.JButton jButton4
- javax.swing.JButton jButton5
- javax.swing.JButton jButton6
- javax.swing.JButton jButton7
- javax.swing.JButton jButton8
- javax.swing.JButton jButton9
- javax.swing.JLabel jLabel1
- javax.swing.JLabel jLabel10
- javax.swing.JLabel jLabel11
- javax.swing.JLabel jLabel12
- javax.swing.JLabel jLabel13
- javax.swing.JLabel jLabel14
- javax.swing.JLabel jLabel15
- javax.swing.JLabel jLabel16
- javax.swing.JLabel jLabel17
- javax.swing.JLabel jLabel18
- javax.swing.JLabel jLabel2
- javax.swing.JLabel jLabel3
- javax.swing.JLabel jLabel4
- javax.swing.JLabel jLabel5
- javax.swing.JLabel jLabel6
- javax.swing.JLabel jLabel7
- javax.swing.JLabel jLabel8
- javax.swing.JLabel jLabel9
- javax.swing.JPanel jPanel1
- javax.swing.JPanel jPanel10
- javax.swing.JPanel jPanel11
- javax.swing.JPanel jPanel2
- javax.swing.JPanel jPanel3
- javax.swing.JPanel jPanel4
- javax.swing.JPanel jPanel5
- javax.swing.JPanel jPanel6
- javax.swing.JPanel jPanel7
- javax.swing.JPanel jPanel8
- javax.swing.JPanel jPanel9
- javax.swing.JLabel lb01
- javax.swing.JLabel lb02
- javax.swing.JLabel lb03
- javax.swing.JLabel lb04
- javax.swing.JLabel lb05
- javax.swing.JPanel pnCBottom
- javax.swing.JPanel pnCenter
- javax.swing.JPanel pnRoot
- javax.swing.JPanel pnSide
- javax.swing.JPanel pniCCenter
- javax.swing.JPanel pniCTop
+ int noCand()
+ int novoters()
- void initComponents()
- void jButton5ActionPerformed(java.awt.event.ActionEvent)
- void jButton1MouseClicked(java.awt.event.MouseEvent)
- void jButton1ActionPerformed(java.awt.event.ActionEvent)
- void jButton2ActionPerformed(java.awt.event.ActionEvent)
- void jButton7ActionPerformed(java.awt.event.ActionEvent)
- void jButton13ActionPerformed(java.awt.event.ActionEvent)
- void jButton17ActionPerformed(java.awt.event.ActionEvent)
- void jButton9ActionPerformed(java.awt.event.ActionEvent)
- void jPanel7MouseClicked(java.awt.event.MouseEvent)
- void jButton8ActionPerformed(java.awt.event.ActionEvent)
- void jButton3ActionPerformed(java.awt.event.ActionEvent)
- void jButton4ActionPerformed(java.awt.event.ActionEvent)
+ {static} void main(String[])
}


class Admin.AdminLogin {
- javax.swing.JButton jButton1
- javax.swing.JButton jButton12
- javax.swing.JButton jButton13
- javax.swing.JButton jButton2
- javax.swing.JButton jButton3
- javax.swing.JButton jButton4
- javax.swing.JButton jButton5
- javax.swing.JButton jButton6
- javax.swing.JButton jButton7
- javax.swing.JButton jButton8
- javax.swing.JLabel jLabel1
- javax.swing.JLabel jLabel2
- javax.swing.JLabel jLabel3
- javax.swing.JLabel jLabel4
- javax.swing.JLabel jLabel5
- javax.swing.JLabel jLabel6
- javax.swing.JLabel jLabel7
- javax.swing.JLabel jLabel8
- javax.swing.JLabel jLabel9
- javax.swing.JPanel jPanel1
- javax.swing.JPanel jPanel2
- javax.swing.JPanel jPanel3
- javax.swing.JPanel jPanel4
- javax.swing.JPanel jPanel5
- javax.swing.JPanel jPanel6
- javax.swing.JPasswordField jPasswordField1
- javax.swing.JTextField jTextField2
- javax.swing.JPanel pnCBottom
- javax.swing.JPanel pnCenter
- javax.swing.JPanel pnRoot
- javax.swing.JPanel pnSide
- javax.swing.JPanel pniCCenter
- javax.swing.JPanel pniCTop
- void initComponents()
- void jButton5ActionPerformed(java.awt.event.ActionEvent)
- void jButton1MouseClicked(java.awt.event.MouseEvent)
- void jButton1ActionPerformed(java.awt.event.ActionEvent)
- void jButton2ActionPerformed(java.awt.event.ActionEvent)
- void jButton7ActionPerformed(java.awt.event.ActionEvent)
- void jButton8ActionPerformed(java.awt.event.ActionEvent)
- void jButton13ActionPerformed(java.awt.event.ActionEvent)
- void jButton12ActionPerformed(java.awt.event.ActionEvent)
- void jTextField2ActionPerformed(java.awt.event.ActionEvent)
- void jButton3ActionPerformed(java.awt.event.ActionEvent)
- void jButton4ActionPerformed(java.awt.event.ActionEvent)
+ {static} void main(String[])
}


class Admin.CreateElectionAddCanditates {
~ File f1
~ String path1
- ImageIcon format1
~ String fname1
~ int s1
~ byte[] pimage1
~ File f2
~ String path2
- ImageIcon format2
~ String fname2
~ int s2
~ byte[] pimage2
~ Connection con
~ PreparedStatement pst
~ ResultSet rs
~ int q
- JFrame frame
- javax.swing.JButton jButton1
- javax.swing.JButton jButton10
- javax.swing.JButton jButton13
- javax.swing.JButton jButton15
- javax.swing.JButton jButton16
- javax.swing.JButton jButton17
- javax.swing.JButton jButton18
- javax.swing.JButton jButton2
- javax.swing.JButton jButton3
- javax.swing.JButton jButton4
- javax.swing.JButton jButton5
- javax.swing.JButton jButton6
- javax.swing.JButton jButton7
- javax.swing.JButton jButton8
- javax.swing.JButton jButton9
- javax.swing.JComboBox<String> jComboBox1
- javax.swing.JComboBox<String> jComboBox2
- javax.swing.JLabel jLabel1
- javax.swing.JLabel jLabel10
- javax.swing.JLabel jLabel11
- javax.swing.JLabel jLabel12
- javax.swing.JLabel jLabel13
- javax.swing.JLabel jLabel14
- javax.swing.JLabel jLabel15
- javax.swing.JLabel jLabel16
- javax.swing.JLabel jLabel17
- javax.swing.JLabel jLabel18
- javax.swing.JLabel jLabel19
- javax.swing.JLabel jLabel2
- javax.swing.JLabel jLabel20
- javax.swing.JLabel jLabel21
- javax.swing.JLabel jLabel22
- javax.swing.JLabel jLabel23
- javax.swing.JLabel jLabel24
- javax.swing.JLabel jLabel25
- javax.swing.JLabel jLabel3
- javax.swing.JLabel jLabel4
- javax.swing.JLabel jLabel5
- javax.swing.JLabel jLabel6
- javax.swing.JLabel jLabel7
- javax.swing.JLabel jLabel8
- javax.swing.JLabel jLabel9
- javax.swing.JPanel jPanel1
- javax.swing.JPanel jPanel2
- javax.swing.JPanel jPanel3
- javax.swing.JPanel jPanel4
- javax.swing.JPanel jPanel5
- javax.swing.JPanel jPanel6
- javax.swing.JScrollPane jScrollPane2
- javax.swing.JScrollPane jScrollPane3
- javax.swing.JTable jTable2
- javax.swing.JTextArea jTextArea1
- javax.swing.JTextField jTextField1
- javax.swing.JTextField jTextField10
- javax.swing.JTextField jTextField2
- javax.swing.JTextField jTextField3
- javax.swing.JTextField jTextField4
- javax.swing.JTextField jTextField5
- javax.swing.JTextField jTextField6
- javax.swing.JTextField jTextField7
- javax.swing.JTextField jTextField8
- javax.swing.JTextField jTextField9
- javax.swing.JPanel pnCBottom
- javax.swing.JPanel pnCenter
- javax.swing.JPanel pnRoot
- javax.swing.JPanel pnSide
- javax.swing.JPanel pniCCenter
- javax.swing.JPanel pniCTop
+ void upDateDB()
- void initComponents()
- void jButton5ActionPerformed(java.awt.event.ActionEvent)
- void jButton1MouseClicked(java.awt.event.MouseEvent)
- void jButton1ActionPerformed(java.awt.event.ActionEvent)
- void jButton2ActionPerformed(java.awt.event.ActionEvent)
- void jButton7ActionPerformed(java.awt.event.ActionEvent)
- void jButton13ActionPerformed(java.awt.event.ActionEvent)
- void jButton15ActionPerformed(java.awt.event.ActionEvent)
- void jButton16ActionPerformed(java.awt.event.ActionEvent)
- void jButton17ActionPerformed(java.awt.event.ActionEvent)
- void jButton18ActionPerformed(java.awt.event.ActionEvent)
- void jTextField2ActionPerformed(java.awt.event.ActionEvent)
- void jTextField1ActionPerformed(java.awt.event.ActionEvent)
- void jComboBox1ActionPerformed(java.awt.event.ActionEvent)
- void jTable2MouseClicked(java.awt.event.MouseEvent)
- void jButton8ActionPerformed(java.awt.event.ActionEvent)
- void jButton9ActionPerformed(java.awt.event.ActionEvent)
- void jButton8MouseClicked(java.awt.event.MouseEvent)
- void jTable2AncestorAdded(javax.swing.event.AncestorEvent)
- void jLabel1AncestorAdded(javax.swing.event.AncestorEvent)
- void jButton10ActionPerformed(java.awt.event.ActionEvent)
- void jButton3ActionPerformed(java.awt.event.ActionEvent)
- void jButton4ActionPerformed(java.awt.event.ActionEvent)
+ {static} void main(String[])
}


class Voters.VotersVotingProcess {
~ Connection con
~ PreparedStatement pst
~ ResultSet rs
~ int q
~ String username
~ String pwd
- javax.swing.JButton jButton1
- javax.swing.JButton jButton10
- javax.swing.JButton jButton11
- javax.swing.JButton jButton12
- javax.swing.JButton jButton13
- javax.swing.JButton jButton14
- javax.swing.JButton jButton15
- javax.swing.JButton jButton2
- javax.swing.JButton jButton3
- javax.swing.JButton jButton4
- javax.swing.JButton jButton5
- javax.swing.JButton jButton6
- javax.swing.JButton jButton7
- javax.swing.JButton jButton8
- javax.swing.JButton jButton9
- javax.swing.JLabel jLabel1
- javax.swing.JLabel jLabel2
- javax.swing.JLabel jLabel3
- javax.swing.JLabel jLabel4
- javax.swing.JLabel jLabel5
- javax.swing.JLabel jLabel6
- javax.swing.JLabel jLabel7
- javax.swing.JLabel jLabel8
- javax.swing.JPanel jPanel1
- javax.swing.JPanel jPanel2
- javax.swing.JPanel jPanel3
- javax.swing.JPanel jPanel4
- javax.swing.JPanel jPanel5
- javax.swing.JPanel jPanel6
- javax.swing.JScrollPane jScrollPane1
- javax.swing.JTable jTable1
- javax.swing.JPanel pnCBottom
- javax.swing.JPanel pnCenter
- javax.swing.JPanel pnRoot
- javax.swing.JPanel pnSide
- javax.swing.JPanel pniCCenter
- javax.swing.JPanel pniCTop
- void initComponents()
- void jButton5ActionPerformed(java.awt.event.ActionEvent)
- void jButton1MouseClicked(java.awt.event.MouseEvent)
- void jButton1ActionPerformed(java.awt.event.ActionEvent)
- void jButton2ActionPerformed(java.awt.event.ActionEvent)
- void jButton7ActionPerformed(java.awt.event.ActionEvent)
- void jButton13ActionPerformed(java.awt.event.ActionEvent)
- void jTable1MouseClicked(java.awt.event.MouseEvent)
- void jButton3ActionPerformed(java.awt.event.ActionEvent)
- void jButton4ActionPerformed(java.awt.event.ActionEvent)
- void jTable1MouseEntered(java.awt.event.MouseEvent)
- void jButton14ActionPerformed(java.awt.event.ActionEvent)
- void jButton8ActionPerformed(java.awt.event.ActionEvent)
- void jButton9ActionPerformed(java.awt.event.ActionEvent)
- void jButton11ActionPerformed(java.awt.event.ActionEvent)
- void jButton10ActionPerformed(java.awt.event.ActionEvent)
- void jButton12ActionPerformed(java.awt.event.ActionEvent)
- void jButton15ActionPerformed(java.awt.event.ActionEvent)
+ {static} void main(String[])
}


class Admin.AdminPage {
- JFrame frame
- javax.swing.JButton jButton1
- javax.swing.JButton jButton12
- javax.swing.JButton jButton13
- javax.swing.JButton jButton14
- javax.swing.JButton jButton15
- javax.swing.JButton jButton16
- javax.swing.JButton jButton17
- javax.swing.JButton jButton2
- javax.swing.JButton jButton3
- javax.swing.JButton jButton4
- javax.swing.JButton jButton5
- javax.swing.JButton jButton6
- javax.swing.JButton jButton7
- javax.swing.JButton jButton8
- javax.swing.JLabel jLabel1
- javax.swing.JLabel jLabel2
- javax.swing.JLabel jLabel3
- javax.swing.JLabel jLabel4
- javax.swing.JLabel jLabel5
- javax.swing.JLabel jLabel6
- javax.swing.JLabel jLabel7
- javax.swing.JLabel jLabel8
- javax.swing.JPanel jPanel1
- javax.swing.JPanel jPanel2
- javax.swing.JPanel jPanel3
- javax.swing.JPanel jPanel4
- javax.swing.JPanel jPanel5
- javax.swing.JPanel jPanel6
- javax.swing.JPanel pnCBottom
- javax.swing.JPanel pnCenter
- javax.swing.JPanel pnRoot
- javax.swing.JPanel pnSide
- javax.swing.JPanel pniCCenter
- javax.swing.JPanel pniCTop
- void initComponents()
- void jButton5ActionPerformed(java.awt.event.ActionEvent)
- void jButton1MouseClicked(java.awt.event.MouseEvent)
- void jButton1ActionPerformed(java.awt.event.ActionEvent)
- void jButton2ActionPerformed(java.awt.event.ActionEvent)
- void jButton7ActionPerformed(java.awt.event.ActionEvent)
- void jButton8ActionPerformed(java.awt.event.ActionEvent)
- void jButton13ActionPerformed(java.awt.event.ActionEvent)
- void jButton12ActionPerformed(java.awt.event.ActionEvent)
- void jButton14ActionPerformed(java.awt.event.ActionEvent)
- void jButton15ActionPerformed(java.awt.event.ActionEvent)
- void jButton16ActionPerformed(java.awt.event.ActionEvent)
- void jButton17ActionPerformed(java.awt.event.ActionEvent)
- void jButton3ActionPerformed(java.awt.event.ActionEvent)
- void jButton4ActionPerformed(java.awt.event.ActionEvent)
+ {static} void main(String[])
}


class General.Canditates {
~ Connection con
~ PreparedStatement pst
~ ResultSet rs
~ int q
- javax.swing.JButton jButton1
- javax.swing.JButton jButton13
- javax.swing.JButton jButton2
- javax.swing.JButton jButton3
- javax.swing.JButton jButton4
- javax.swing.JButton jButton5
- javax.swing.JButton jButton6
- javax.swing.JButton jButton7
- javax.swing.JLabel jLabel1
- javax.swing.JLabel jLabel2
- javax.swing.JLabel jLabel3
- javax.swing.JLabel jLabel4
- javax.swing.JLabel jLabel5
- javax.swing.JLabel jLabel6
- javax.swing.JLabel jLabel7
- javax.swing.JLabel jLabel8
- javax.swing.JPanel jPanel1
- javax.swing.JPanel jPanel2
- javax.swing.JPanel jPanel3
- javax.swing.JPanel jPanel4
- javax.swing.JPanel jPanel5
- javax.swing.JPanel jPanel6
- javax.swing.JScrollPane jScrollPane1
- javax.swing.JTable jTable1
- javax.swing.JPanel pnCBottom
- javax.swing.JPanel pnCenter
- javax.swing.JPanel pnRoot
- javax.swing.JPanel pnSide
- javax.swing.JPanel pniCCenter
- javax.swing.JPanel pniCTop
+ void upDateDB()
- void initComponents()
- void jButton5ActionPerformed(java.awt.event.ActionEvent)
- void jButton1MouseClicked(java.awt.event.MouseEvent)
- void jButton1ActionPerformed(java.awt.event.ActionEvent)
- void jButton2ActionPerformed(java.awt.event.ActionEvent)
- void jButton7ActionPerformed(java.awt.event.ActionEvent)
- void jButton13ActionPerformed(java.awt.event.ActionEvent)
- void jButton3ActionPerformed(java.awt.event.ActionEvent)
- void jButton4ActionPerformed(java.awt.event.ActionEvent)
- void jTable1MouseClicked(java.awt.event.MouseEvent)
+ {static} void main(String[])
}


class General.Home {
- javax.swing.JButton jButton1
- javax.swing.JButton jButton10
- javax.swing.JButton jButton11
- javax.swing.JButton jButton12
- javax.swing.JButton jButton13
- javax.swing.JButton jButton2
- javax.swing.JButton jButton3
- javax.swing.JButton jButton4
- javax.swing.JButton jButton5
- javax.swing.JButton jButton6
- javax.swing.JButton jButton7
- javax.swing.JButton jButton8
- javax.swing.JButton jButton9
- javax.swing.JLabel jLabel1
- javax.swing.JLabel jLabel2
- javax.swing.JLabel jLabel3
- javax.swing.JLabel jLabel4
- javax.swing.JLabel jLabel5
- javax.swing.JLabel jLabel6
- javax.swing.JLabel jLabel7
- javax.swing.JPanel jPanel1
- javax.swing.JPanel jPanel2
- javax.swing.JPanel jPanel3
- javax.swing.JPanel jPanel4
- javax.swing.JPanel jPanel5
- javax.swing.JPanel jPanel6
- javax.swing.JPanel pnCBottom
- javax.swing.JPanel pnCenter
- javax.swing.JPanel pnRoot
- javax.swing.JPanel pnSide
- javax.swing.JPanel pniCCenter
- javax.swing.JPanel pniCTop
- void initComponents()
- void jButton5ActionPerformed(java.awt.event.ActionEvent)
- void jButton1MouseClicked(java.awt.event.MouseEvent)
- void jButton1ActionPerformed(java.awt.event.ActionEvent)
- void jButton2ActionPerformed(java.awt.event.ActionEvent)
- void jButton7ActionPerformed(java.awt.event.ActionEvent)
- void jButton8ActionPerformed(java.awt.event.ActionEvent)
- void jButton9ActionPerformed(java.awt.event.ActionEvent)
- void jButton13ActionPerformed(java.awt.event.ActionEvent)
- void jButton3ActionPerformed(java.awt.event.ActionEvent)
- void jButton4ActionPerformed(java.awt.event.ActionEvent)
+ {static} void main(String[])
}


class Admin.ManageVoters {
~ Connection con
~ PreparedStatement pst
~ ResultSet rs
~ int q
- JFrame frame
- javax.swing.JButton jButton1
- javax.swing.JButton jButton13
- javax.swing.JButton jButton15
- javax.swing.JButton jButton16
- javax.swing.JButton jButton17
- javax.swing.JButton jButton18
- javax.swing.JButton jButton19
- javax.swing.JButton jButton2
- javax.swing.JButton jButton3
- javax.swing.JButton jButton4
- javax.swing.JButton jButton5
- javax.swing.JButton jButton6
- javax.swing.JButton jButton7
- javax.swing.JButton jButton8
- javax.swing.JComboBox<String> jComboBox1
- javax.swing.JLabel jLabel1
- javax.swing.JLabel jLabel10
- javax.swing.JLabel jLabel11
- javax.swing.JLabel jLabel12
- javax.swing.JLabel jLabel13
- javax.swing.JLabel jLabel14
- javax.swing.JLabel jLabel15
- javax.swing.JLabel jLabel16
- javax.swing.JLabel jLabel17
- javax.swing.JLabel jLabel18
- javax.swing.JLabel jLabel19
- javax.swing.JLabel jLabel2
- javax.swing.JLabel jLabel3
- javax.swing.JLabel jLabel4
- javax.swing.JLabel jLabel5
- javax.swing.JLabel jLabel6
- javax.swing.JLabel jLabel7
- javax.swing.JLabel jLabel8
- javax.swing.JLabel jLabel9
- javax.swing.JPanel jPanel1
- javax.swing.JPanel jPanel2
- javax.swing.JPanel jPanel3
- javax.swing.JPanel jPanel4
- javax.swing.JPanel jPanel5
- javax.swing.JPanel jPanel6
- javax.swing.JScrollPane jScrollPane2
- javax.swing.JScrollPane jScrollPane3
- javax.swing.JTable jTable2
- javax.swing.JTextArea jTextArea1
- javax.swing.JTextField jTextField1
- javax.swing.JTextField jTextField2
- javax.swing.JTextField jTextField3
- javax.swing.JTextField jTextField5
- javax.swing.JTextField jTextField6
- javax.swing.JTextField jTextField7
- javax.swing.JTextField jTextField8
- javax.swing.JPanel pnCBottom
- javax.swing.JPanel pnCenter
- javax.swing.JPanel pnRoot
- javax.swing.JPanel pnSide
- javax.swing.JPanel pniCCenter
- javax.swing.JPanel pniCTop
+ void upDateDB()
- void initComponents()
- void jButton5ActionPerformed(java.awt.event.ActionEvent)
- void jButton1MouseClicked(java.awt.event.MouseEvent)
- void jButton1ActionPerformed(java.awt.event.ActionEvent)
- void jButton2ActionPerformed(java.awt.event.ActionEvent)
- void jButton7ActionPerformed(java.awt.event.ActionEvent)
- void jButton13ActionPerformed(java.awt.event.ActionEvent)
- void jButton15ActionPerformed(java.awt.event.ActionEvent)
- void jButton16ActionPerformed(java.awt.event.ActionEvent)
- void jButton17ActionPerformed(java.awt.event.ActionEvent)
- void jButton18ActionPerformed(java.awt.event.ActionEvent)
- void jTextField2ActionPerformed(java.awt.event.ActionEvent)
- void jTextField6ActionPerformed(java.awt.event.ActionEvent)
- void jTextField1ActionPerformed(java.awt.event.ActionEvent)
- void jComboBox1ActionPerformed(java.awt.event.ActionEvent)
- void jTable2MouseClicked(java.awt.event.MouseEvent)
- void jButton19ActionPerformed(java.awt.event.ActionEvent)
- void jButton8ActionPerformed(java.awt.event.ActionEvent)
- void jButton3ActionPerformed(java.awt.event.ActionEvent)
- void jButton4ActionPerformed(java.awt.event.ActionEvent)
+ {static} void main(String[])
}


class General.Instructions {
- javax.swing.JButton jButton1
- javax.swing.JButton jButton13
- javax.swing.JButton jButton2
- javax.swing.JButton jButton3
- javax.swing.JButton jButton4
- javax.swing.JButton jButton5
- javax.swing.JButton jButton6
- javax.swing.JButton jButton7
- javax.swing.JLabel jLabel1
- javax.swing.JLabel jLabel2
- javax.swing.JLabel jLabel3
- javax.swing.JLabel jLabel4
- javax.swing.JLabel jLabel5
- javax.swing.JLabel jLabel6
- javax.swing.JLabel jLabel7
- javax.swing.JLabel jLabel8
- javax.swing.JPanel jPanel1
- javax.swing.JPanel jPanel2
- javax.swing.JPanel jPanel3
- javax.swing.JPanel jPanel4
- javax.swing.JPanel jPanel5
- javax.swing.JPanel jPanel6
- javax.swing.JScrollPane jScrollPane1
- javax.swing.JTextArea jTextArea1
- javax.swing.JPanel pnCBottom
- javax.swing.JPanel pnCenter
- javax.swing.JPanel pnRoot
- javax.swing.JPanel pnSide
- javax.swing.JPanel pniCCenter
- javax.swing.JPanel pniCTop
- void initComponents()
- void jButton5ActionPerformed(java.awt.event.ActionEvent)
- void jButton1MouseClicked(java.awt.event.MouseEvent)
- void jButton1ActionPerformed(java.awt.event.ActionEvent)
- void jButton2ActionPerformed(java.awt.event.ActionEvent)
- void jButton7ActionPerformed(java.awt.event.ActionEvent)
- void jButton13ActionPerformed(java.awt.event.ActionEvent)
- void jButton3ActionPerformed(java.awt.event.ActionEvent)
- void jButton4ActionPerformed(java.awt.event.ActionEvent)
+ {static} void main(String[])
}


class Voters.VotersLogin {
~ Connection con
~ PreparedStatement pst
~ ResultSet rs
~ int q
- javax.swing.JButton jButton1
- javax.swing.JButton jButton12
- javax.swing.JButton jButton13
- javax.swing.JButton jButton2
- javax.swing.JButton jButton3
- javax.swing.JButton jButton4
- javax.swing.JButton jButton5
- javax.swing.JButton jButton6
- javax.swing.JButton jButton7
- javax.swing.JButton jButton8
- javax.swing.JLabel jLabel1
- javax.swing.JLabel jLabel2
- javax.swing.JLabel jLabel3
- javax.swing.JLabel jLabel4
- javax.swing.JLabel jLabel5
- javax.swing.JLabel jLabel6
- javax.swing.JLabel jLabel7
- javax.swing.JLabel jLabel8
- javax.swing.JLabel jLabel9
- javax.swing.JPanel jPanel1
- javax.swing.JPanel jPanel2
- javax.swing.JPanel jPanel3
- javax.swing.JPanel jPanel4
- javax.swing.JPanel jPanel5
- javax.swing.JPanel jPanel6
- javax.swing.JPasswordField jPasswordField1
- javax.swing.JTextField jTextField2
- javax.swing.JPanel pnCBottom
- javax.swing.JPanel pnCenter
- javax.swing.JPanel pnRoot
- javax.swing.JPanel pnSide
- javax.swing.JPanel pniCCenter
- javax.swing.JPanel pniCTop
- void initComponents()
- void jButton5ActionPerformed(java.awt.event.ActionEvent)
- void jButton1MouseClicked(java.awt.event.MouseEvent)
- void jButton1ActionPerformed(java.awt.event.ActionEvent)
- void jButton2ActionPerformed(java.awt.event.ActionEvent)
- void jButton7ActionPerformed(java.awt.event.ActionEvent)
- void jButton8ActionPerformed(java.awt.event.ActionEvent)
- void jButton13ActionPerformed(java.awt.event.ActionEvent)
- void jButton12ActionPerformed(java.awt.event.ActionEvent)
- void jTextField2ActionPerformed(java.awt.event.ActionEvent)
- void jButton12MouseClicked(java.awt.event.MouseEvent)
- void jButton3ActionPerformed(java.awt.event.ActionEvent)
- void jButton4ActionPerformed(java.awt.event.ActionEvent)
+ {static} void main(String[])
}


class Admin.CreateElection {
- javax.swing.JButton jButton1
- javax.swing.JButton jButton12
- javax.swing.JButton jButton13
- javax.swing.JButton jButton2
- javax.swing.JButton jButton3
- javax.swing.JButton jButton4
- javax.swing.JButton jButton5
- javax.swing.JButton jButton6
- javax.swing.JButton jButton7
- javax.swing.JButton jButton8
- javax.swing.JButton jButton9
- javax.swing.JLabel jLabel1
- javax.swing.JLabel jLabel10
- javax.swing.JLabel jLabel2
- javax.swing.JLabel jLabel3
- javax.swing.JLabel jLabel4
- javax.swing.JLabel jLabel5
- javax.swing.JLabel jLabel6
- javax.swing.JLabel jLabel7
- javax.swing.JLabel jLabel8
- javax.swing.JLabel jLabel9
- javax.swing.JPanel jPanel1
- javax.swing.JPanel jPanel2
- javax.swing.JPanel jPanel3
- javax.swing.JPanel jPanel4
- javax.swing.JPanel jPanel5
- javax.swing.JPanel jPanel6
- javax.swing.JTextField jTextField1
- javax.swing.JTextField jTextField2
- javax.swing.JPanel pnCBottom
- javax.swing.JPanel pnCenter
- javax.swing.JPanel pnRoot
- javax.swing.JPanel pnSide
- javax.swing.JPanel pniCCenter
- javax.swing.JPanel pniCTop
- void initComponents()
- void jButton5ActionPerformed(java.awt.event.ActionEvent)
- void jButton1MouseClicked(java.awt.event.MouseEvent)
- void jButton1ActionPerformed(java.awt.event.ActionEvent)
- void jButton2ActionPerformed(java.awt.event.ActionEvent)
- void jButton7ActionPerformed(java.awt.event.ActionEvent)
- void jButton8ActionPerformed(java.awt.event.ActionEvent)
- void jButton13ActionPerformed(java.awt.event.ActionEvent)
- void jButton12ActionPerformed(java.awt.event.ActionEvent)
- void jTextField2ActionPerformed(java.awt.event.ActionEvent)
- void jButton3ActionPerformed(java.awt.event.ActionEvent)
- void jButton4ActionPerformed(java.awt.event.ActionEvent)
- void jButton9ActionPerformed(java.awt.event.ActionEvent)
+ {static} void main(String[])
}


class Voters.NewVoterApplication {
~ Connection con
~ PreparedStatement pst
~ ResultSet rs
~ int q
- javax.swing.ButtonGroup buttonGroup1
- javax.swing.JButton jButton1
- javax.swing.JButton jButton2
- javax.swing.JButton jButton3
- javax.swing.JButton jButton6
- javax.swing.JComboBox<String> jComboBox1
- javax.swing.JComboBox<String> jComboBox2
- javax.swing.JLabel jLabel1
- javax.swing.JLabel jLabel10
- javax.swing.JLabel jLabel12
- javax.swing.JLabel jLabel13
- javax.swing.JLabel jLabel14
- javax.swing.JLabel jLabel15
- javax.swing.JLabel jLabel16
- javax.swing.JLabel jLabel2
- javax.swing.JLabel jLabel8
- javax.swing.JLabel jLabel9
- javax.swing.JPanel jPanel1
- javax.swing.JPasswordField jPasswordField1
- javax.swing.JScrollPane jScrollPane2
- javax.swing.JTextArea jTextArea1
- javax.swing.JTextField jTextField1
- javax.swing.JTextField jTextField2
- javax.swing.JTextField jTextField3
- javax.swing.JTextField jTextField6
- javax.swing.JPanel pcTop
- javax.swing.JPanel pnCenter
- javax.swing.JPanel pnRoot
- javax.swing.JPanel pnSide
+ void Reset()
+ void submitDataToDataBase()
- void initComponents()
- void jTextField2ActionPerformed(java.awt.event.ActionEvent)
- void jTextField6ActionPerformed(java.awt.event.ActionEvent)
- void jButton1ActionPerformed(java.awt.event.ActionEvent)
- void jButton2ActionPerformed(java.awt.event.ActionEvent)
- void jTextField3ActionPerformed(java.awt.event.ActionEvent)
- void jButton3ActionPerformed(java.awt.event.ActionEvent)
- void jButton6ActionPerformed(java.awt.event.ActionEvent)
+ {static} void main(String[])
}


class Admin.ElectionStatus {
~ Connection con
~ PreparedStatement pst
~ ResultSet rs
~ int q
- JFrame frame
- javax.swing.JButton jButton1
- javax.swing.JButton jButton10
- javax.swing.JButton jButton13
- javax.swing.JButton jButton17
- javax.swing.JButton jButton2
- javax.swing.JButton jButton3
- javax.swing.JButton jButton4
- javax.swing.JButton jButton5
- javax.swing.JButton jButton6
- javax.swing.JButton jButton7
- javax.swing.JButton jButton8
- javax.swing.JLabel jLabel1
- javax.swing.JLabel jLabel10
- javax.swing.JLabel jLabel11
- javax.swing.JLabel jLabel12
- javax.swing.JLabel jLabel13
- javax.swing.JLabel jLabel2
- javax.swing.JLabel jLabel3
- javax.swing.JLabel jLabel4
- javax.swing.JLabel jLabel5
- javax.swing.JLabel jLabel6
- javax.swing.JLabel jLabel7
- javax.swing.JLabel jLabel8
- javax.swing.JLabel jLabel9
- javax.swing.JPanel jPanel1
- javax.swing.JPanel jPanel2
- javax.swing.JPanel jPanel3
- javax.swing.JPanel jPanel4
- javax.swing.JPanel jPanel5
- javax.swing.JPanel jPanel6
- javax.swing.JPanel pnCBottom
- javax.swing.JPanel pnCenter
- javax.swing.JPanel pnRoot
- javax.swing.JPanel pnSide
- javax.swing.JPanel pniCCenter
- javax.swing.JPanel pniCTop
+ int noCand()
+ int novoters()
- void initComponents()
- void jButton5ActionPerformed(java.awt.event.ActionEvent)
- void jButton1MouseClicked(java.awt.event.MouseEvent)
- void jButton1ActionPerformed(java.awt.event.ActionEvent)
- void jButton2ActionPerformed(java.awt.event.ActionEvent)
- void jButton7ActionPerformed(java.awt.event.ActionEvent)
- void jButton8ActionPerformed(java.awt.event.ActionEvent)
- void jButton13ActionPerformed(java.awt.event.ActionEvent)
- void jButton17ActionPerformed(java.awt.event.ActionEvent)
- void jButton10ActionPerformed(java.awt.event.ActionEvent)
- void jButton3ActionPerformed(java.awt.event.ActionEvent)
- void jButton4ActionPerformed(java.awt.event.ActionEvent)
+ {static} void main(String[])
}


class General.VotersList {
~ Connection con
~ PreparedStatement pst
~ ResultSet rs
~ int q
- javax.swing.JButton jButton1
- javax.swing.JButton jButton13
- javax.swing.JButton jButton2
- javax.swing.JButton jButton3
- javax.swing.JButton jButton4
- javax.swing.JButton jButton5
- javax.swing.JButton jButton6
- javax.swing.JButton jButton7
- javax.swing.JLabel jLabel1
- javax.swing.JLabel jLabel2
- javax.swing.JLabel jLabel3
- javax.swing.JLabel jLabel4
- javax.swing.JLabel jLabel5
- javax.swing.JLabel jLabel6
- javax.swing.JLabel jLabel7
- javax.swing.JLabel jLabel8
- javax.swing.JPanel jPanel1
- javax.swing.JPanel jPanel2
- javax.swing.JPanel jPanel3
- javax.swing.JPanel jPanel4
- javax.swing.JPanel jPanel5
- javax.swing.JPanel jPanel6
- javax.swing.JScrollPane jScrollPane1
- javax.swing.JTable jTable1
- javax.swing.JPanel pnCBottom
- javax.swing.JPanel pnCenter
- javax.swing.JPanel pnRoot
- javax.swing.JPanel pnSide
- javax.swing.JPanel pniCCenter
- javax.swing.JPanel pniCTop
- void initComponents()
- void jButton5ActionPerformed(java.awt.event.ActionEvent)
- void jButton1MouseClicked(java.awt.event.MouseEvent)
- void jButton1ActionPerformed(java.awt.event.ActionEvent)
- void jButton2ActionPerformed(java.awt.event.ActionEvent)
- void jButton7ActionPerformed(java.awt.event.ActionEvent)
- void jButton13ActionPerformed(java.awt.event.ActionEvent)
- void jTable1MouseClicked(java.awt.event.MouseEvent)
- void jButton3ActionPerformed(java.awt.event.ActionEvent)
- void jButton4ActionPerformed(java.awt.event.ActionEvent)
- void jTable1MouseEntered(java.awt.event.MouseEvent)
+ {static} void main(String[])
}


class Admin.FirstTimeVotersDetails {
~ Connection con
~ PreparedStatement pst
~ ResultSet rs
~ int q
- JFrame frame
- javax.swing.JButton jButton1
- javax.swing.JButton jButton13
- javax.swing.JButton jButton19
- javax.swing.JButton jButton2
- javax.swing.JButton jButton3
- javax.swing.JButton jButton4
- javax.swing.JButton jButton5
- javax.swing.JButton jButton6
- javax.swing.JButton jButton7
- javax.swing.JButton jButton8
- javax.swing.JLabel jLabel1
- javax.swing.JLabel jLabel16
- javax.swing.JLabel jLabel19
- javax.swing.JLabel jLabel2
- javax.swing.JLabel jLabel3
- javax.swing.JLabel jLabel4
- javax.swing.JLabel jLabel5
- javax.swing.JLabel jLabel6
- javax.swing.JLabel jLabel7
- javax.swing.JLabel jLabel8
- javax.swing.JPanel jPanel1
- javax.swing.JPanel jPanel2
- javax.swing.JPanel jPanel3
- javax.swing.JPanel jPanel4
- javax.swing.JPanel jPanel5
- javax.swing.JPanel jPanel6
- javax.swing.JScrollPane jScrollPane3
- javax.swing.JTable jTable2
- javax.swing.JTextField jTextField1
- javax.swing.JPanel pnCBottom
- javax.swing.JPanel pnCenter
- javax.swing.JPanel pnRoot
- javax.swing.JPanel pnSide
- javax.swing.JPanel pniCCenter
- javax.swing.JPanel pniCTop
- void initComponents()
- void jButton5ActionPerformed(java.awt.event.ActionEvent)
- void jButton1MouseClicked(java.awt.event.MouseEvent)
- void jButton1ActionPerformed(java.awt.event.ActionEvent)
- void jButton2ActionPerformed(java.awt.event.ActionEvent)
- void jButton7ActionPerformed(java.awt.event.ActionEvent)
- void jButton13ActionPerformed(java.awt.event.ActionEvent)
- void jButton19ActionPerformed(java.awt.event.ActionEvent)
- void jTable2MouseClicked(java.awt.event.MouseEvent)
- void jScrollPane3MouseClicked(java.awt.event.MouseEvent)
- void jButton8ActionPerformed(java.awt.event.ActionEvent)
- void jButton3ActionPerformed(java.awt.event.ActionEvent)
- void jButton4ActionPerformed(java.awt.event.ActionEvent)
+ {static} void main(String[])
}




Admin.JFrame <|-- Admin.ElectionResults
Admin.JFrame <|-- Admin.AdminLogin
Admin.JFrame <|-- Admin.CreateElectionAddCanditates
Voters.JFrame <|-- Voters.VotersVotingProcess
Admin.JFrame <|-- Admin.AdminPage
General.JFrame <|-- General.Canditates
General.JFrame <|-- General.Home
Admin.JFrame <|-- Admin.ManageVoters
General.JFrame <|-- General.Instructions
Voters.JFrame <|-- Voters.VotersLogin
Admin.JFrame <|-- Admin.CreateElection
Voters.JFrame <|-- Voters.NewVoterApplication
Admin.JFrame <|-- Admin.ElectionStatus
General.JFrame <|-- General.VotersList
Admin.JFrame <|-- Admin.FirstTimeVotersDetails
@enduml